# ProBuilder 4.1.0
# https://unity3d.com/unity/features/worldbuilding/probuilder
# 02/10/2019 17:49:46

mtllib ./small-hand.mtl
o small-hand

g New Game Object
v 1.42007 0.3872184 4.093827
v 1.530561 0.4056249 4.093827
v 1.565537 0.4241131 4.093827
v 1.627123 0.5309672 4.093827
v 1.718921 0.6796338 4.093827
v 1.773536 0.7771963 4.093827
v 1.795778 0.8442987 4.093827
v 1.767849 0.8989162 4.093827
v 1.719277 0.9049848 4.093827
v 1.674348 0.8625045 4.093827
v 1.625776 0.8127419 4.093827
v 1.589347 0.7993909 4.093827
v 1.588133 0.873428 4.093827
v 1.596631 0.9413967 4.093827
v 1.622131 1.051845 4.093827
v 1.64156 1.158653 4.093827
v 1.628201 1.226622 4.093827
v 1.589344 1.249683 4.093827
v 1.544415 1.242401 4.093827
v 1.522558 1.191424 4.093827
v 1.4837 1.091899 4.093827
v 1.4582 0.9765952 4.093827
v 1.4412 0.9790227 4.093827
v 1.442414 1.094326 4.093827
v 1.452128 1.201134 4.093827
v 1.4497 1.270316 4.093827
v 1.421771 1.293377 4.093827
v 1.380485 1.288522 4.093827
v 1.350128 1.26182 4.093827
v 1.333127 1.203562 4.093827
v 1.31977 1.097968 4.093827
v 1.31977 0.99116 4.093827
v 1.301556 0.9887325 4.093827
v 1.282127 1.096754 4.093827
v 1.272413 1.201134 4.093827
v 1.262698 1.246042 4.093827
v 1.235984 1.26182 4.093827
v 1.176484 1.239973 4.093827
v 1.169198 1.203562 4.093827
v 1.175269 1.084617 4.093827
v 1.189841 0.9693128 4.093827
v 1.183769 0.9462522 4.093827
v 1.166769 0.9535345 4.093827
v 1.155841 1.004511 4.093827
v 1.141269 1.067625 4.093827
v 1.116983 1.100395 4.093827
v 1.057483 1.087044 4.093827
v 1.048983 1.050632 4.093827
v 1.052624 0.9899469 4.093827
v 1.065982 0.9231921 4.093827
v 1.094773 0.8192184 4.093827
v 1.116944 0.6987181 4.093827
v 1.141887 0.6100743 4.093827
v 1.169601 0.5186609 4.093827
v 1.200087 0.4120112 4.093827
v 1.245816 0.382925 4.093827
v 1.310944 0.3746146 4.093827
v 1.245816 0.382925 4.211
v 1.169601 0.5186609 4.211
v 1.200087 0.4120112 4.211
v 1.310944 0.3746146 4.211
v 1.42007 0.3872184 4.211
v 1.53056 0.4056249 4.211
v 1.565537 0.424113 4.211
v 1.627123 0.5309672 4.211
v 1.719277 0.9049848 4.211
v 1.795778 0.8442987 4.211
v 1.767849 0.8989162 4.211
v 1.674348 0.8625045 4.211
v 1.773536 0.7771963 4.211
v 1.625776 0.8127419 4.211
v 1.718921 0.6796338 4.211
v 1.589347 0.7993909 4.211
v 1.141887 0.6100743 4.211
v 1.116944 0.6987181 4.211
v 1.421771 1.293377 4.211
v 1.380485 1.288522 4.211
v 1.4497 1.270316 4.211
v 1.452128 1.201134 4.211
v 1.350128 1.26182 4.211
v 1.333127 1.203562 4.211
v 1.442414 1.094326 4.211
v 1.31977 1.097968 4.211
v 1.31977 0.99116 4.211
v 1.4412 0.9790227 4.211
v 1.589344 1.249683 4.211
v 1.544415 1.242401 4.211
v 1.628201 1.226622 4.211
v 1.64156 1.158653 4.211
v 1.522557 1.191424 4.211
v 1.622131 1.051845 4.211
v 1.4837 1.091899 4.211
v 1.4582 0.9765953 4.211
v 1.596631 0.9413967 4.211
v 1.588133 0.873428 4.211
v 1.301556 0.9887326 4.211
v 1.262698 1.246042 4.211
v 1.235984 1.26182 4.211
v 1.272413 1.201134 4.211
v 1.176484 1.239973 4.211
v 1.169198 1.203562 4.211
v 1.175269 1.084617 4.211
v 1.282127 1.096754 4.211
v 1.189841 0.9693129 4.211
v 1.183769 0.9462522 4.211
v 1.094773 0.8192184 4.211
v 1.166769 0.9535346 4.211
v 1.065982 0.9231921 4.211
v 1.052624 0.989947 4.211
v 1.155841 1.004511 4.211
v 1.116983 1.100395 4.211
v 1.057483 1.087044 4.211
v 1.048983 1.050632 4.211
v 1.141269 1.067625 4.211

vt 0.4595584 0.05111408
vt 0.3490678 0.06952053
vt 0.3140916 0.08800867
vt 0.2525054 0.1948628
vt 0.1607071 0.3435294
vt 0.1060928 0.4410919
vt 0.08385089 0.5081943
vt 0.1117797 0.5628118
vt 0.1603515 0.5688804
vt 0.2052803 0.5264001
vt 0.2538521 0.4766375
vt 0.2902809 0.4632865
vt 0.2914952 0.5373236
vt 0.2829971 0.6052923
vt 0.2574969 0.715741
vt 0.2380683 0.8225487
vt 0.2514273 0.8905178
vt 0.2902848 0.9135786
vt 0.3352135 0.9062963
vt 0.3570708 0.8553199
vt 0.3959283 0.7557946
vt 0.4214285 0.6404908
vt 0.4384286 0.6429183
vt 0.4372143 0.7582219
vt 0.4274999 0.8650297
vt 0.4299285 0.9342119
vt 0.4578572 0.9572729
vt 0.4991433 0.952418
vt 0.5295007 0.9257158
vt 0.5465009 0.8674572
vt 0.559858 0.7618632
vt 0.559858 0.6550556
vt 0.5780725 0.6526281
vt 0.5975011 0.7606494
vt 0.6072155 0.8650297
vt 0.6169298 0.9099374
vt 0.6436443 0.9257158
vt 0.7031448 0.9038688
vt 0.7104305 0.8674572
vt 0.7043591 0.7485122
vt 0.6897875 0.6332085
vt 0.695859 0.6101478
vt 0.7128592 0.6174302
vt 0.7237878 0.6684064
vt 0.7383592 0.7315201
vt 0.7626452 0.7642906
vt 0.8221456 0.7509397
vt 0.8306456 0.7145279
vt 0.8270038 0.6538425
vt 0.8136466 0.5870877
vt 0.7848557 0.483114
vt 0.7626843 0.3626137
vt 0.7377416 0.2739699
vt 0.710027 0.1825565
vt 0.6795412 0.07590684
vt 0.6338127 0.04682061
vt 0.5686843 0.03851023
vt 0.8457639 0.7012768
vt 0.8456259 0.6758082
vt 0.9629354 0.7006418
vt 0.9627974 0.6751732
vt 0.8453857 0.6314895
vt 0.9625572 0.6308545
vt 0.8450353 0.5668215
vt 0.9622067 0.5661864
vt 0.8444413 0.4572274
vt 0.9616128 0.4565924
vt 0.8438385 0.3459991
vt 0.9610099 0.345364
vt 0.8436444 0.3101977
vt 0.9608159 0.3095626
vt 0.8432839 0.2436866
vt 0.9604554 0.2430516
vt 0.8422914 0.06057772
vt 0.8424288 0.08592346
vt 0.9594629 0.05994269
vt 0.9596003 0.08528844
vt 0.8426902 0.1341579
vt 0.9598617 0.1335229
vt 0.8429442 0.181022
vt 0.9601157 0.1803869
vt 0.8432198 0.2318653
vt 0.9603912 0.2312302
vt 0.8427492 0.1450432
vt 0.9599208 0.1444081
vt 0.8434204 0.2688777
vt 0.9605919 0.2682426
vt 0.8458908 0.7246892
vt 0.9630623 0.7240542
vt 0.8460034 0.7454623
vt 0.9631748 0.7448273
vt 0.8442019 0.4131857
vt 0.8444266 0.454653
vt 0.9613733 0.4125507
vt 0.961598 0.454018
vt 0.844057 0.3863655
vt 0.9612285 0.3857305
vt 0.8440614 0.3871724
vt 0.9612328 0.3865373
vt 0.8445982 0.4862245
vt 0.9617696 0.4855895
vt 0.844705 0.5059282
vt 0.9618765 0.5052931
vt 0.8441411 0.4018668
vt 0.9613125 0.4012318
vt 0.8448041 0.5242047
vt 0.9619756 0.5235696
vt 0.8448312 0.5291955
vt 0.9620026 0.5285605
vt 0.8441769 0.4084676
vt 0.9613484 0.4078325
vt 0.8433062 0.2478406
vt 0.8435513 0.2930599
vt 0.9604777 0.2472055
vt 0.9607227 0.2924249
vt 0.8431017 0.2101036
vt 0.9602731 0.2094686
vt 0.8430466 0.1999355
vt 0.9602181 0.1993005
vt 0.8436825 0.317275
vt 0.960854 0.3166399
vt 0.8431789 0.2243334
vt 0.9603504 0.2236984
vt 0.8439182 0.3607399
vt 0.9610897 0.3601049
vt 0.8440855 0.3915997
vt 0.9612569 0.3909647
vt 0.8433449 0.2549664
vt 0.9605165 0.2543314
vt 0.8434082 0.266631
vt 0.9605796 0.265996
vt 0.8449304 0.5475032
vt 0.9621019 0.5468682
vt 0.8450755 0.5742942
vt 0.8452161 0.6002418
vt 0.962247 0.5736591
vt 0.9623876 0.5996068
vt 0.8455438 0.6606972
vt 0.8455924 0.6696763
vt 0.9627153 0.6600622
vt 0.9627639 0.6690413
vt 0.8455898 0.6691695
vt 0.9627613 0.6685345
vt 0.8450082 0.5618628
vt 0.9621797 0.5612277
vt 0.8455401 0.660002
vt 0.9627116 0.659367
vt 0.8455788 0.6671443
vt 0.9627503 0.6665093
vt 0.8460928 0.7619785
vt 0.9632643 0.7613435
vt 0.845669 0.6837854
vt 0.9628405 0.6831503
vt 0.8462223 0.785879
vt 0.9633938 0.785244
vt 0.8462777 0.7961022
vt 0.9634492 0.7954672
vt 0.8457153 0.6923199
vt 0.9628868 0.6916848
vt 0.8459013 0.7266539
vt 0.8462268 0.7867123
vt 0.9630728 0.7260189
vt 0.9633983 0.7860773
vt 0.8462821 0.7969043
vt 0.9634535 0.7962693
vt 0.8457782 0.7039261
vt 0.9629496 0.7032911

vn -1.253337E-08 -2.972564E-08 -1
vn 1.904707E-08 1.66928E-08 1
vn -0.9614899 -0.2748413 -1.026679E-07
vn -0.5366957 -0.8437761 -2.749562E-07
vn -0.1265736 -0.9919574 -3.271853E-07
vn 0.1147356 -0.9933962 -3.243122E-07
vn 0.1643239 -0.9864066 -3.205214E-07
vn 0.4673212 -0.8840878 -2.583772E-07
vn 0.8663977 -0.4993549 -1.706597E-07
vn 0.890348 0.4552812 1.700719E-07
vn 0.1239766 0.9922853 1.182896E-07
vn -0.6870298 0.7266295 8.662098E-08
vn 0.9492152 -0.3146285 -1.175306E-07
vn -0.7156177 0.6984925 2.609243E-07
vn 0.8725851 -0.4884627 -1.824669E-07
vn -0.3441121 0.9389287 3.507401E-07
vn 0.8508627 -0.5253885 -1.962607E-07
vn -0.9569852 -0.2901375 -1.083819E-07
vn -0.9626181 -0.2708633 -1.011819E-07
vn -0.1167874 0.9931571 1.141004E-07
vn 0.6367091 0.7711044 1.121657E-07
vn 0.9993847 0.03508183 3.595554E-08
vn -0.6604564 0.7508647 6.851214E-08
vn -0.9599644 0.2801229 -2.764709E-08
vn 0.9958896 -0.09057803 2.08646E-08
vn -0.9920945 0.1254956 -4.812312E-08
vn -1 -7.580048E-15 -6.358606E-08
vn 0.9999448 -0.01053044 3.053594E-08
vn -0.159999 0.9871173 1.176735E-07
vn 0.5103616 0.8599601 1.025152E-07
vn 0.9812275 0.1928549 2.299009E-08
vn -0.9190785 0.3940753 -1.146314E-08
vn 0.9838555 -0.1789658 -2.133439E-08
vn -0.9315197 0.3636915 -1.587625E-08
vn -0.9764071 0.2159389 -3.634395E-08
vn 0.9743682 -0.2249604 -2.681737E-08
vn 0.9922745 -0.1240634 -4.634431E-08
vn 0.1413572 0.9899588 1.225064E-07
vn -0.132103 0.9912361 1.097646E-07
vn 0.9998658 0.01639856 6.125741E-09
vn 0.508553 0.8610309 1.026429E-07
vn 0.9773937 0.2114284 2.520422E-08
vn -0.9805634 0.1962038 2.338932E-08
vn -0.3446742 0.9387226 1.119044E-07
vn -0.9987 -0.05097783 -6.07703E-09
vn 0.9956974 0.09266658 1.104672E-08
vn -0.9921093 -0.1253781 -1.494623E-08
vn 0.9842077 0.1770187 8.368415E-08
vn -0.9670454 0.2546051 3.035128E-08
vn -0.9834912 -0.1809569 -6.759709E-08
vn 0.3937629 0.9192121 1.095786E-07
vn -0.9637348 -0.2668628 -3.181253E-08
vn -0.9805631 -0.1962054 -2.33895E-08
vn 0.9777824 0.2096234 2.498906E-08
vn -0.2189407 0.9757383 1.163171E-07
vn -0.9738184 0.2273286 2.709968E-08
vn 0.8034216 0.5954109 7.09785E-08
vn 0.9743687 0.2249582 2.68171E-08
vn -0.9982045 -0.05990214 -7.140891E-09

usemtl small-hand
f 55/55/1 54/54/1 56/56/1
f 54/54/1 57/57/1 56/56/1
f 1/1/1 57/57/1 54/54/1
f 2/2/1 1/1/1 54/54/1
f 4/4/1 3/3/1 2/2/1
f 54/54/1 4/4/1 2/2/1
f 8/8/1 7/7/1 9/9/1
f 9/9/1 7/7/1 10/10/1
f 7/7/1 6/6/1 10/10/1
f 11/11/1 10/10/1 6/6/1
f 5/5/1 11/11/1 6/6/1
f 5/5/1 12/12/1 11/11/1
f 4/4/1 12/12/1 5/5/1
f 4/4/1 54/54/1 12/12/1
f 12/12/1 54/54/1 53/53/1
f 12/12/1 53/53/1 52/52/1
f 26/26/1 28/28/1 27/27/1
f 28/28/1 26/26/1 25/25/1
f 25/25/1 29/29/1 28/28/1
f 25/25/1 30/30/1 29/29/1
f 24/24/1 30/30/1 25/25/1
f 31/31/1 30/30/1 24/24/1
f 32/32/1 31/31/1 24/24/1
f 23/23/1 32/32/1 24/24/1
f 17/17/1 19/19/1 18/18/1
f 19/19/1 17/17/1 16/16/1
f 16/16/1 20/20/1 19/19/1
f 15/15/1 20/20/1 16/16/1
f 21/21/1 20/20/1 15/15/1
f 22/22/1 21/21/1 15/15/1
f 14/14/1 22/22/1 15/15/1
f 13/13/1 22/22/1 14/14/1
f 13/13/1 23/23/1 22/22/1
f 32/32/1 23/23/1 13/13/1
f 13/13/1 33/33/1 32/32/1
f 12/12/1 33/33/1 13/13/1
f 35/35/1 37/37/1 36/36/1
f 37/37/1 39/39/1 38/38/1
f 37/37/1 35/35/1 39/39/1
f 35/35/1 40/40/1 39/39/1
f 40/40/1 35/35/1 34/34/1
f 41/41/1 40/40/1 34/34/1
f 41/41/1 34/34/1 33/33/1
f 42/42/1 41/41/1 33/33/1
f 12/12/1 42/42/1 33/33/1
f 52/52/1 42/42/1 12/12/1
f 52/52/1 51/51/1 42/42/1
f 51/51/1 43/43/1 42/42/1
f 51/51/1 50/50/1 43/43/1
f 43/43/1 50/50/1 49/49/1
f 43/43/1 49/49/1 44/44/1
f 48/48/1 47/47/1 46/46/1
f 46/46/1 45/45/1 48/48/1
f 44/44/1 48/48/1 45/45/1
f 44/44/1 49/49/1 48/48/1
f 113/48/2 109/49/2 110/44/2
f 114/45/2 113/48/2 110/44/2
f 113/48/2 114/45/2 111/46/2
f 111/46/2 112/47/2 113/48/2
f 110/44/2 109/49/2 107/43/2
f 109/49/2 108/50/2 107/43/2
f 107/43/2 108/50/2 106/51/2
f 105/42/2 107/43/2 106/51/2
f 105/42/2 106/51/2 75/52/2
f 73/12/2 105/42/2 75/52/2
f 96/33/2 105/42/2 73/12/2
f 96/33/2 104/41/2 105/42/2
f 96/33/2 103/34/2 104/41/2
f 103/34/2 102/40/2 104/41/2
f 103/34/2 99/35/2 102/40/2
f 101/39/2 102/40/2 99/35/2
f 101/39/2 99/35/2 98/37/2
f 100/38/2 101/39/2 98/37/2
f 97/36/2 98/37/2 99/35/2
f 95/13/2 96/33/2 73/12/2
f 84/32/2 96/33/2 95/13/2
f 95/13/2 85/23/2 84/32/2
f 93/22/2 85/23/2 95/13/2
f 94/14/2 93/22/2 95/13/2
f 91/15/2 93/22/2 94/14/2
f 91/15/2 92/21/2 93/22/2
f 91/15/2 90/20/2 92/21/2
f 89/16/2 90/20/2 91/15/2
f 87/19/2 90/20/2 89/16/2
f 89/16/2 88/17/2 87/19/2
f 86/18/2 87/19/2 88/17/2
f 82/24/2 84/32/2 85/23/2
f 82/24/2 83/31/2 84/32/2
f 82/24/2 81/30/2 83/31/2
f 79/25/2 81/30/2 82/24/2
f 80/29/2 81/30/2 79/25/2
f 77/28/2 80/29/2 79/25/2
f 79/25/2 78/26/2 77/28/2
f 76/27/2 77/28/2 78/26/2
f 75/52/2 74/53/2 73/12/2
f 74/53/2 59/54/2 73/12/2
f 73/12/2 59/54/2 65/4/2
f 72/5/2 73/12/2 65/4/2
f 71/11/2 73/12/2 72/5/2
f 70/6/2 71/11/2 72/5/2
f 70/6/2 69/10/2 71/11/2
f 69/10/2 70/6/2 67/7/2
f 69/10/2 67/7/2 66/9/2
f 66/9/2 67/7/2 68/8/2
f 63/2/2 65/4/2 59/54/2
f 63/2/2 64/3/2 65/4/2
f 59/54/2 62/1/2 63/2/2
f 59/54/2 61/57/2 62/1/2
f 58/56/2 61/57/2 59/54/2
f 58/56/2 59/54/2 60/55/2
f 55/61/3 60/59/3 59/58/3
f 59/58/3 54/60/3 55/61/3
f 56/63/4 58/62/4 60/59/4
f 60/59/4 55/61/4 56/63/4
f 57/65/5 61/64/5 58/62/5
f 58/62/5 56/63/5 57/65/5
f 1/67/6 62/66/6 61/64/6
f 61/64/6 57/65/6 1/67/6
f 2/69/7 63/68/7 62/66/7
f 62/66/7 1/67/7 2/69/7
f 3/71/8 64/70/8 63/68/8
f 63/68/8 2/69/8 3/71/8
f 4/73/9 65/72/9 64/70/9
f 64/70/9 3/71/9 4/73/9
f 8/77/10 68/75/10 67/74/10
f 67/74/10 7/76/10 8/77/10
f 9/79/11 66/78/11 68/75/11
f 68/75/11 8/77/11 9/79/11
f 10/81/12 69/80/12 66/78/12
f 66/78/12 9/79/12 10/81/12
f 7/76/13 67/74/13 70/75/13
f 70/75/13 6/77/13 7/76/13
f 11/83/14 71/82/14 69/80/14
f 69/80/14 10/81/14 11/83/14
f 6/77/15 70/75/15 72/84/15
f 72/84/15 5/85/15 6/77/15
f 12/87/16 73/86/16 71/82/16
f 71/82/16 11/83/16 12/87/16
f 5/85/17 72/84/17 65/72/17
f 65/72/17 4/73/17 5/85/17
f 54/60/18 59/58/18 74/88/18
f 74/88/18 53/89/18 54/60/18
f 53/89/19 74/88/19 75/90/19
f 75/90/19 52/91/19 53/89/19
f 28/95/20 77/93/20 76/92/20
f 76/92/20 27/94/20 28/95/20
f 27/94/21 76/92/21 78/96/21
f 78/96/21 26/97/21 27/94/21
f 26/97/22 78/96/22 79/98/22
f 79/98/22 25/99/22 26/97/22
f 29/101/23 80/100/23 77/93/23
f 77/93/23 28/95/23 29/101/23
f 30/103/24 81/102/24 80/100/24
f 80/100/24 29/101/24 30/103/24
f 25/99/25 79/98/25 82/104/25
f 82/104/25 24/105/25 25/99/25
f 31/107/26 83/106/26 81/102/26
f 81/102/26 30/103/26 31/107/26
f 32/109/27 84/108/27 83/106/27
f 83/106/27 31/107/27 32/109/27
f 24/105/28 82/104/28 85/110/28
f 85/110/28 23/111/28 24/105/28
f 19/115/29 87/113/29 86/112/29
f 86/112/29 18/114/29 19/115/29
f 18/114/30 86/112/30 88/116/30
f 88/116/30 17/117/30 18/114/30
f 17/117/31 88/116/31 89/118/31
f 89/118/31 16/119/31 17/117/31
f 20/121/32 90/120/32 87/113/32
f 87/113/32 19/115/32 20/121/32
f 16/119/33 89/118/33 91/122/33
f 91/122/33 15/123/33 16/119/33
f 21/125/34 92/124/34 90/120/34
f 90/120/34 20/121/34 21/125/34
f 22/127/35 93/126/35 92/124/35
f 92/124/35 21/125/35 22/127/35
f 15/123/36 91/122/36 94/128/36
f 94/128/36 14/129/36 15/123/36
f 14/129/37 94/128/37 95/130/37
f 95/130/37 13/131/37 14/129/37
f 23/111/38 85/110/38 93/126/38
f 93/126/38 22/127/38 23/111/38
f 33/133/39 96/132/39 84/108/39
f 84/108/39 32/109/39 33/133/39
f 13/131/40 95/130/40 73/86/40
f 73/86/40 12/87/40 13/131/40
f 37/137/41 98/135/41 97/134/41
f 97/134/41 36/136/41 37/137/41
f 36/136/42 97/134/42 99/64/42
f 99/64/42 35/65/42 36/136/42
f 39/141/43 101/139/43 100/138/43
f 100/138/43 38/140/43 39/141/43
f 38/140/44 100/138/44 98/135/44
f 98/135/44 37/137/44 38/140/44
f 40/143/45 102/142/45 101/139/45
f 101/139/45 39/141/45 40/143/45
f 35/65/46 99/64/46 103/144/46
f 103/144/46 34/145/46 35/65/46
f 41/147/47 104/146/47 102/142/47
f 102/142/47 40/143/47 41/147/47
f 34/145/48 103/144/48 96/132/48
f 96/132/48 33/133/48 34/145/48
f 42/149/49 105/148/49 104/146/49
f 104/146/49 41/147/49 42/149/49
f 52/91/50 75/90/50 106/150/50
f 106/150/50 51/151/50 52/91/50
f 43/153/51 107/152/51 105/148/51
f 105/148/51 42/149/51 43/153/51
f 51/151/52 106/150/52 108/154/52
f 108/154/52 50/155/52 51/151/52
f 50/155/53 108/154/53 109/156/53
f 109/156/53 49/157/53 50/155/53
f 44/159/54 110/158/54 107/152/54
f 107/152/54 43/153/54 44/159/54
f 47/163/55 112/161/55 111/160/55
f 111/160/55 46/162/55 47/163/55
f 48/165/56 113/164/56 112/161/56
f 112/161/56 47/163/56 48/165/56
f 46/162/57 111/160/57 114/166/57
f 114/166/57 45/167/57 46/162/57
f 45/167/58 114/166/58 110/158/58
f 110/158/58 44/159/58 45/167/58
f 49/157/59 109/156/59 113/164/59
f 113/164/59 48/165/59 49/157/59

