# Blender v2.78 (sub 0) OBJ File: '3.blend'
# www.blender.org
mtllib Lollipop_01.mtl
o Circle.001
v 0.138405 7.133159 -0.011697
v 0.092512 7.133159 0.099098
v -0.018283 7.133159 0.144991
v -0.129078 7.133159 0.099098
v -0.174971 7.133159 -0.011697
v -0.129078 7.133159 -0.122492
v -0.018283 7.133159 -0.168385
v 0.092512 7.133159 -0.122492
v 0.138405 -0.025941 -0.011697
v 0.092512 -0.025941 0.099098
v -0.018283 -0.025941 0.144991
v -0.129078 -0.025941 0.099098
v -0.174971 -0.025941 -0.011697
v -0.129078 -0.025941 -0.122492
v -0.018283 -0.025941 -0.168385
v 0.092512 -0.025941 -0.122492
v -0.018283 -0.025941 -0.011697
v -0.199510 8.421716 -0.435871
v -0.199510 7.569761 -0.189293
v 0.162944 7.569761 -0.189293
v 0.162944 8.421716 -0.435871
v -0.199510 7.799985 0.248678
v -0.199510 6.934428 0.045771
v 0.162944 6.934428 0.045771
v 0.162944 7.799985 0.248678
v -0.199510 7.013400 0.838612
v -0.199510 6.913097 0.024862
v 0.162944 6.913097 0.024861
v 0.162944 7.013400 0.838612
v -0.199510 6.252980 0.466737
v -0.199510 6.758867 -0.112332
v 0.162944 6.758867 -0.112332
v 0.162944 6.252980 0.466737
v -0.199510 5.922594 -0.304585
v -0.199510 6.816008 -0.304585
v 0.162944 6.816008 -0.304585
v 0.162944 5.922594 -0.304585
v -0.199510 6.259236 -1.049553
v -0.199510 6.890975 -0.470483
v 0.162944 6.890975 -0.470483
v 0.162944 6.259236 -1.049553
v -0.199510 7.071963 -1.358128
v -0.199510 7.071963 -0.539200
v 0.162944 7.071963 -0.539200
v 0.162944 7.071963 -1.358128
v -0.199510 7.829265 -1.092688
v -0.199510 7.308379 -0.427347
v 0.162944 7.308379 -0.427347
v 0.162944 7.829265 -1.092688
v -0.199510 7.223679 -0.729297
v -0.199510 6.637540 -0.292312
v 0.162944 6.637540 -0.292312
v 0.162944 7.223679 -0.729297
v -0.199510 8.446295 0.678134
v -0.199510 7.665447 0.301443
v 0.162944 7.665447 0.301443
v 0.162944 8.446295 0.678134
v -0.199510 7.187138 1.532153
v -0.199510 7.025065 0.726813
v 0.162944 7.025065 0.726813
v 0.162944 7.187138 1.532153
v -0.199510 5.485628 0.897467
v -0.199510 6.187644 0.390942
v 0.162944 6.187644 0.390942
v 0.162944 5.485628 0.897467
v -0.199510 5.173277 -0.756054
v -0.199510 6.044583 -0.574997
v 0.162944 6.044583 -0.574997
v 0.162944 5.173277 -0.756054
v -0.199510 5.987529 -1.834207
v -0.199510 6.471334 -1.145746
v 0.162944 6.471334 -1.145746
v 0.162944 5.987529 -1.834207
v -0.199510 7.411055 -2.076785
v -0.199510 7.267944 -1.268432
v 0.162944 7.267944 -1.268432
v 0.162944 7.411055 -2.076785
v -0.199510 8.731889 -1.418478
v -0.199510 8.076168 -0.862258
v 0.162944 8.076168 -0.862258
v 0.162944 8.731889 -1.418478
v -0.199510 9.296415 -0.276951
v -0.199510 8.411083 -0.167032
v 0.162944 8.411083 -0.167032
v 0.162944 9.296415 -0.276951
v -0.199510 9.058875 1.067412
v -0.199510 8.284295 0.659314
v 0.162944 8.284295 0.659314
v 0.162944 9.058875 1.067412
v -0.199510 7.657676 2.110872
v -0.199510 7.362885 1.337809
v 0.162944 7.362885 1.337809
v 0.162944 7.657676 2.110872
v -0.199510 6.029058 2.088955
v -0.199510 6.394553 1.341692
v 0.162944 6.394553 1.341692
v 0.162944 6.029058 2.088955
v -0.199510 4.869410 0.935515
v -0.199510 5.685186 0.601607
v 0.162944 5.685186 0.601607
v 0.162944 4.869410 0.935515
v -0.199510 4.568055 -0.562081
v -0.199510 5.457978 -0.489749
v 0.162944 5.457978 -0.489749
v 0.162944 4.568055 -0.562081
v -0.199510 5.042534 -1.964157
v -0.199510 5.729928 -1.441054
v 0.162944 5.729928 -1.441054
v 0.162944 5.042534 -1.964157
v -0.199510 6.779008 -2.776574
v -0.199510 6.868268 -1.961743
v 0.162944 6.868268 -1.961743
v 0.162944 6.779008 -2.776574
v -0.199510 8.909770 -2.234411
v -0.199510 8.392959 -1.566406
v 0.162944 8.392959 -1.566406
v 0.162944 8.909770 -2.234411
v -0.199510 9.799840 -0.938580
v -0.199510 8.958287 -0.663623
v 0.162944 8.958287 -0.663623
v 0.162944 9.799840 -0.938580
v -0.199510 9.890996 0.563945
v -0.199510 9.018208 0.388992
v 0.162944 9.018208 0.388992
v 0.162944 9.890996 0.563945
v -0.199510 9.082396 1.960995
v -0.199510 8.449550 1.382942
v 0.162944 8.449550 1.382942
v 0.162944 9.082396 1.960995
v -0.199510 7.750569 2.742786
v -0.199510 7.525753 1.950211
v 0.162944 7.525753 1.950211
v 0.162944 7.750569 2.742786
v -0.199510 6.107843 2.680830
v -0.199510 6.473469 1.933620
v 0.162944 6.473469 1.933620
v 0.162944 6.107843 2.680830
v -0.199510 4.509525 1.042397
v -0.199510 5.328370 0.887642
v 0.162944 5.328370 0.887642
v 0.162944 4.509525 1.042397
v -0.199510 4.626707 -0.502303
v -0.199510 5.320570 -0.521343
v 0.162944 5.320570 -0.521343
v 0.162944 4.626707 -0.502303
v 0.200687 6.930609 -0.510805
v -0.237253 6.930609 -0.510805
v -0.237253 4.873982 -0.511823
v 0.200687 4.873982 -0.511823
v -0.237253 7.367206 0.147224
v 0.200687 7.367206 0.147224
v -0.237253 6.963249 0.431737
v 0.200687 6.963249 0.431737
v -0.237253 6.505924 0.177203
v 0.200687 6.505924 0.177203
v -0.237253 6.369300 -0.304585
v 0.200687 6.369300 -0.304585
v -0.237253 6.575105 -0.760018
v 0.200687 6.575105 -0.760018
v -0.237253 7.071963 -0.948664
v 0.200687 7.071963 -0.948664
v -0.237253 7.568822 -0.760018
v 0.200687 7.568822 -0.760018
v -0.237253 7.995737 -0.312582
v 0.200687 7.995737 -0.312582
v -0.237253 8.055870 0.489788
v 0.200687 8.055870 0.489788
v -0.237253 7.106102 1.129483
v 0.200687 7.106102 1.129483
v -0.237253 5.836637 0.644205
v 0.200687 5.836637 0.644205
v -0.237253 5.608930 -0.665525
v 0.200687 5.608930 -0.665525
v -0.237253 6.229430 -1.489976
v 0.200687 6.229430 -1.489976
v -0.237253 7.339500 -1.672608
v 0.200687 7.339500 -1.672608
v -0.237253 8.404028 -1.140368
v 0.200687 8.404028 -1.140368
v -0.237253 8.853748 -0.221991
v 0.200687 8.853748 -0.221991
v -0.237253 8.671583 0.863363
v 0.200687 8.671583 0.863363
v -0.237253 7.510281 1.724341
v 0.200687 7.510281 1.724341
v -0.237253 6.211805 1.715324
v 0.200687 6.211805 1.715324
v -0.237253 5.277297 0.768561
v 0.200687 5.277297 0.768561
v -0.237253 5.013017 -0.525915
v 0.200687 5.013017 -0.525915
v -0.237253 5.386231 -1.702605
v 0.200687 5.386231 -1.702605
v -0.237253 6.823636 -2.369159
v 0.200687 6.823636 -2.369159
v -0.237253 8.651362 -1.900409
v 0.200687 8.651362 -1.900409
v -0.237253 9.379066 -0.801102
v 0.200687 9.379066 -0.801102
v -0.237253 9.454600 0.476469
v 0.200687 9.454600 0.476469
v -0.237253 8.765972 1.671969
v 0.200687 8.765972 1.671969
v -0.237253 7.638161 2.346499
v 0.200687 7.638161 2.346499
v -0.237253 6.290656 2.307225
v 0.200687 6.290656 2.307225
v -0.237253 4.913331 1.039064
v 0.200687 4.913331 1.039064
v -0.199510 5.182400 1.987898
v -0.199510 5.774634 1.536916
v 0.162944 5.774634 1.536916
v 0.162944 5.182400 1.987898
v 0.200687 5.475709 1.799429
v -0.237253 5.475709 1.799429
v -0.199510 7.924173 -2.612520
v -0.199510 7.710398 -1.871102
v 0.162944 7.710398 -1.871102
v 0.162944 7.924173 -2.612520
v 0.200687 7.817285 -2.241812
v -0.237253 7.817285 -2.241812
v -0.199510 4.426013 0.239596
v -0.199510 5.182367 0.152699
v 0.162944 5.182367 0.152699
v 0.162944 4.426013 0.239596
v 0.200687 4.751554 0.233170
v -0.237253 4.751554 0.233170
v -0.199510 6.321391 1.334746
v -0.199510 6.591363 0.678814
v 0.162944 6.591363 0.678814
v 0.162944 6.321391 1.334746
v 0.200687 6.456376 1.006780
v -0.237253 6.456376 1.006780
vn -0.3827 0.0000 -0.9239
vn -0.9239 0.0000 0.3827
vn 0.3827 -0.0000 0.9239
vn 0.3827 -0.0000 -0.9239
vn -0.9239 0.0000 -0.3827
vn -0.3827 0.0000 0.9239
vn 0.9239 -0.0000 0.3827
vn 0.9239 -0.0000 -0.3827
vn 0.0000 -1.0000 -0.0000
vn 0.0000 -0.5977 -0.8017
vn 0.0000 -0.0213 -0.9998
vn -0.9940 -0.0576 -0.0929
vn -0.0000 0.7000 -0.7141
vn 0.9942 0.0639 0.0870
vn 0.0000 0.6000 0.8000
vn -0.9947 0.1023 -0.0121
vn 0.0000 0.9586 0.2849
vn 0.9951 -0.0930 0.0347
vn 0.0000 -0.9192 0.3937
vn -0.9952 0.0348 0.0917
vn 0.0000 0.3550 0.9349
vn 0.9952 -0.0348 -0.0917
vn 0.0000 -0.3550 -0.9349
vn -0.9957 -0.0657 0.0660
vn -0.0000 -0.6733 0.7393
vn 0.9957 0.0679 -0.0627
vn -0.0000 0.7426 -0.6698
vn 0.0000 -0.5533 -0.8330
vn 0.9950 0.0558 0.0826
vn 0.0000 0.5613 0.8276
vn -0.9950 0.0536 -0.0844
vn 0.0000 0.5806 -0.8142
vn 0.9949 -0.0487 0.0885
vn 0.0000 -0.4636 0.8861
vn -0.9956 0.0749 0.0562
vn 0.0000 0.8009 0.5988
vn 0.9956 -0.0748 -0.0564
vn 0.0000 -0.7980 -0.6027
vn -0.9955 -0.0427 0.0852
vn 0.0000 -0.4490 0.8935
vn 0.9955 0.0425 -0.0852
vn 0.0000 0.4461 -0.8950
vn -0.9960 -0.0880 -0.0142
vn -0.0000 -0.9884 -0.1517
vn 0.9960 0.0879 0.0152
vn -0.0000 0.9847 0.1740
vn -0.9951 0.0002 -0.0988
vn 0.0000 -0.0040 -1.0000
vn 0.9951 -0.0010 0.0988
vn 0.0000 -0.0135 0.9999
vn -0.9962 0.0855 -0.0176
vn 0.0000 0.9790 -0.2038
vn 0.9962 -0.0855 0.0173
vn 0.0000 -0.9803 0.1973
vn -0.9952 0.0408 0.0886
vn 0.0000 0.4160 0.9094
vn 0.9952 -0.0412 -0.0884
vn 0.0000 -0.4238 -0.9058
vn -0.9962 -0.0874 0.0051
vn 0.0000 -0.9984 0.0568
vn 0.9962 0.0874 -0.0052
vn -0.0000 0.9982 -0.0606
vn -0.9957 -0.0481 -0.0795
vn 0.0000 -0.5233 -0.8522
vn 0.9957 0.0474 0.0800
vn 0.0000 0.5062 0.8624
vn -0.9947 -0.0582 0.0843
vn 0.0000 0.4937 -0.8696
vn 0.9955 0.0486 -0.0813
vn 0.0000 -0.5994 0.8005
vn -0.9950 -0.0555 -0.0828
vn -0.9950 0.0558 0.0826
vn 0.9947 -0.0582 0.0843
vn -0.9955 0.0486 -0.0813
vn 0.9957 -0.0481 -0.0795
vn -0.9957 0.0474 0.0800
vn 0.9962 -0.0874 0.0051
vn -0.9962 0.0874 -0.0052
vn 0.9952 0.0408 0.0886
vn -0.9952 -0.0412 -0.0884
vn 0.9962 0.0855 -0.0176
vn -0.9962 -0.0855 0.0173
vn 0.9951 0.0002 -0.0988
vn -0.9951 -0.0010 0.0988
vn 0.9960 -0.0880 -0.0142
vn -0.9960 0.0879 0.0152
vn 0.9955 -0.0427 0.0852
vn -0.9955 0.0425 -0.0852
vn 0.9956 0.0749 0.0562
vn -0.9956 -0.0748 -0.0564
vn 0.9950 0.0536 -0.0844
vn -0.9949 -0.0487 0.0885
vn 0.9950 -0.0555 -0.0828
vn 0.9957 -0.0657 0.0660
vn -0.9957 0.0679 -0.0627
vn 0.9952 0.0348 0.0917
vn -0.9952 -0.0348 -0.0917
vn 0.9947 0.1023 -0.0121
vn -0.9951 -0.0930 0.0347
vn 0.9940 -0.0576 -0.0929
vn -0.9942 0.0639 0.0870
vn -0.0000 -0.0385 -0.9993
vn -0.9955 -0.0372 0.0873
vn 0.9955 0.0350 -0.0885
vn 0.0000 0.3582 -0.9337
vn 0.9955 -0.0372 0.0873
vn 0.0000 -0.4076 0.9131
vn -0.9955 0.0350 -0.0885
vn -0.9946 -0.1027 0.0157
vn 0.9963 0.0843 -0.0168
vn 0.0000 -0.9946 0.1035
vn 0.9946 -0.1027 0.0157
vn 0.0000 0.9808 -0.1949
vn -0.9963 0.0843 -0.0168
vn -0.9934 -0.0923 0.0680
vn 0.0000 -0.7514 0.6598
vn 0.9939 0.0940 -0.0582
vn 0.0000 0.8615 -0.5077
vn -0.9942 0.0582 -0.0908
vn -0.0000 0.6646 -0.7472
vn 0.9944 -0.0482 0.0937
vn 0.0000 -0.4393 0.8983
vn -0.9957 0.0841 0.0380
vn -0.0000 0.9113 0.4118
vn 0.9957 -0.0841 -0.0380
vn 0.0000 -0.9113 -0.4118
vn -0.9954 -0.0363 0.0885
vn -0.0000 -0.4277 0.9039
vn 0.9954 0.0325 -0.0898
vn 0.0000 0.3308 -0.9437
vn -0.9956 -0.0929 0.0112
vn 0.0000 -0.9815 0.1914
vn 0.9957 0.0924 -0.0041
vn -0.0000 0.9998 -0.0221
vn -0.9956 0.0924 -0.0151
vn 0.0000 0.9892 -0.1465
vn 0.9956 -0.0921 0.0168
vn 0.0000 -0.9826 0.1856
vn -0.9952 0.0155 0.0968
vn 0.0000 0.1522 0.9883
vn 0.9952 -0.0162 -0.0967
vn 0.0000 -0.1680 -0.9858
vn -0.9960 -0.0806 0.0392
vn 0.0000 -0.9009 0.4340
vn 0.9960 0.0805 -0.0396
vn 0.0000 0.8964 -0.4433
vn -0.9955 -0.0563 -0.0762
vn 0.0000 -0.5930 -0.8052
vn 0.9955 0.0565 0.0761
vn 0.0000 0.5973 0.8020
vn -0.9956 0.0673 -0.0655
vn 0.0000 0.7219 -0.6920
vn 0.9956 -0.0665 0.0663
vn 0.0000 -0.7052 0.7090
vn -0.9960 0.0855 0.0259
vn 0.0000 0.9615 0.2749
vn 0.9960 -0.0848 -0.0279
vn 0.0000 -0.9472 -0.3206
vn -0.9953 0.0130 -0.0955
vn 0.0000 -0.1070 0.9943
vn 0.9954 -0.0114 0.0957
vn 0.0000 0.1418 -0.9899
vn -0.9959 -0.0764 0.0494
vn 0.0000 -0.8475 0.5307
vn 0.9959 0.0754 -0.0509
vn 0.0000 0.8243 -0.5662
vn -0.9960 -0.0776 -0.0446
vn 0.0000 -0.8680 -0.4966
vn 0.9960 0.0775 0.0448
vn 0.0000 0.8655 0.5009
vn -0.9952 0.0023 -0.0974
vn 0.0000 0.0158 -0.9999
vn 0.9953 -0.0033 0.0973
vn 0.0000 -0.0377 0.9993
vn -0.9960 0.0873 0.0160
vn 0.0000 0.9796 0.2009
vn 0.9909 -0.1314 -0.0286
vn 0.0000 -0.9653 -0.2611
vn 0.9960 0.0873 0.0160
vn -0.9909 -0.1314 -0.0286
vn 0.9952 0.0023 -0.0974
vn -0.9953 -0.0033 0.0973
vn 0.9960 -0.0776 -0.0446
vn -0.9960 0.0775 0.0448
vn 0.9959 -0.0764 0.0494
vn -0.9959 0.0754 -0.0509
vn 0.9953 0.0130 -0.0955
vn -0.9954 -0.0114 0.0957
vn 0.9960 0.0855 0.0259
vn -0.9960 -0.0848 -0.0279
vn 0.9956 0.0673 -0.0655
vn -0.9956 -0.0665 0.0663
vn 0.9955 -0.0563 -0.0762
vn -0.9955 0.0565 0.0761
vn 0.9960 -0.0806 0.0392
vn -0.9960 0.0805 -0.0396
vn 0.9952 0.0155 0.0968
vn -0.9952 -0.0162 -0.0967
vn 0.9956 0.0924 -0.0151
vn -0.9956 -0.0921 0.0168
vn 0.9956 -0.0929 0.0112
vn -0.9957 0.0924 -0.0041
vn 0.9954 -0.0363 0.0885
vn -0.9954 0.0325 -0.0898
vn 0.9957 0.0841 0.0380
vn -0.9957 -0.0841 -0.0380
vn 0.9942 0.0582 -0.0908
vn -0.9944 -0.0482 0.0937
vn 0.9934 -0.0923 0.0680
vn -0.9939 0.0940 -0.0582
vn -0.9958 0.0744 -0.0532
vn 0.9938 -0.0897 0.0650
vn 0.0000 -0.8147 0.5798
vn 0.9958 0.0744 -0.0532
vn 0.0000 0.8241 -0.5664
vn -0.9938 -0.0897 0.0650
vn -0.9946 -0.0214 0.1012
vn 0.9947 0.0160 -0.1016
vn 0.0000 -0.2223 0.9750
vn 0.9946 -0.0214 0.1012
vn 0.0000 0.1100 -0.9939
vn -0.9947 0.0160 -0.1016
usemtl FFFFFF
s off
f 6//1 7//1 15//1 14//1
f 4//2 5//2 13//2 12//2
f 2//3 3//3 11//3 10//3
f 7//4 8//4 16//4 15//4
f 5//5 6//5 14//5 13//5
f 3//6 4//6 12//6 11//6
f 1//7 2//7 10//7 9//7
f 8//8 1//8 9//8 16//8
f 15//9 16//9 17//9
f 13//9 14//9 17//9
f 11//9 12//9 17//9
f 9//9 10//9 17//9
f 16//9 9//9 17//9
f 14//9 15//9 17//9
f 12//9 13//9 17//9
f 10//9 11//9 17//9
usemtl F44336
f 146//10 52//10 51//10 147//10
f 148//11 143//11 144//11 149//11
f 150//12 23//12 27//12 152//12
f 23//13 24//13 28//13 27//13
f 151//14 25//14 29//14 153//14
f 25//15 22//15 26//15 29//15
f 154//16 31//16 35//16 156//16
f 31//17 32//17 36//17 35//17
f 155//18 33//18 37//18 157//18
f 33//19 30//19 34//19 37//19
f 158//20 39//20 43//20 160//20
f 39//21 40//21 44//21 43//21
f 159//22 41//22 45//22 161//22
f 41//23 38//23 42//23 45//23
f 162//24 47//24 19//24 164//24
f 47//25 48//25 20//25 19//25
f 163//26 49//26 21//26 165//26
f 49//27 46//27 18//27 21//27
f 55//28 56//28 60//28 59//28
f 167//29 57//29 61//29 169//29
f 57//30 54//30 58//30 61//30
f 233//31 229//31 63//31 170//31
f 229//32 230//32 64//32 63//32
f 232//33 231//33 65//33 171//33
f 231//34 228//34 62//34 65//34
f 172//35 67//35 71//35 174//35
f 67//36 68//36 72//36 71//36
f 173//37 69//37 73//37 175//37
f 69//38 66//38 70//38 73//38
f 176//39 75//39 79//39 178//39
f 75//40 76//40 80//40 79//40
f 177//41 77//41 81//41 179//41
f 77//42 74//42 78//42 81//42
f 180//43 83//43 87//43 182//43
f 83//44 84//44 88//44 87//44
f 181//45 85//45 89//45 183//45
f 85//46 82//46 86//46 89//46
f 184//47 91//47 95//47 186//47
f 91//48 92//48 96//48 95//48
f 185//49 93//49 97//49 187//49
f 93//50 90//50 94//50 97//50
f 188//51 99//51 103//51 190//51
f 99//52 100//52 104//52 103//52
f 189//53 101//53 105//53 191//53
f 101//54 98//54 102//54 105//54
f 192//55 107//55 111//55 194//55
f 107//56 108//56 112//56 111//56
f 193//57 109//57 113//57 195//57
f 109//58 106//58 110//58 113//58
f 198//59 119//59 123//59 200//59
f 119//60 120//60 124//60 123//60
f 199//61 121//61 125//61 201//61
f 121//62 118//62 122//62 125//62
f 202//63 127//63 131//63 204//63
f 127//64 128//64 132//64 131//64
f 203//65 129//65 133//65 205//65
f 129//66 126//66 130//66 133//66
f 215//67 210//67 134//67 206//67
f 212//68 211//68 135//68 136//68
f 214//69 212//69 136//69 207//69
f 210//70 213//70 137//70 134//70
f 166//71 55//71 59//71 168//71
f 54//72 166//72 168//72 58//72
f 213//73 214//73 207//73 137//73
f 211//74 215//74 206//74 135//74
f 128//75 203//75 205//75 132//75
f 126//76 202//76 204//76 130//76
f 120//77 199//77 201//77 124//77
f 118//78 198//78 200//78 122//78
f 108//79 193//79 195//79 112//79
f 106//80 192//80 194//80 110//80
f 100//81 189//81 191//81 104//81
f 98//82 188//82 190//82 102//82
f 92//83 185//83 187//83 96//83
f 90//84 184//84 186//84 94//84
f 84//85 181//85 183//85 88//85
f 82//86 180//86 182//86 86//86
f 76//87 177//87 179//87 80//87
f 74//88 176//88 178//88 78//88
f 68//89 173//89 175//89 72//89
f 66//90 172//90 174//90 70//90
f 230//91 232//91 171//91 64//91
f 228//92 233//92 170//92 62//92
f 56//93 167//93 169//93 60//93
f 48//94 163//94 165//94 20//94
f 46//95 162//95 164//95 18//95
f 40//96 159//96 161//96 44//96
f 38//97 158//97 160//97 42//97
f 32//98 155//98 157//98 36//98
f 30//99 154//99 156//99 34//99
f 24//100 151//100 153//100 28//100
f 22//101 150//101 152//101 26//101
f 142//102 148//102 149//102 145//102
f 53//10 146//10 147//10 50//10
f 115//103 196//103 221//103 217//103
f 117//104 197//104 220//104 219//104
f 114//105 117//105 219//105 216//105
f 197//106 116//106 218//106 220//106
f 116//107 115//107 217//107 218//107
f 196//108 114//108 216//108 221//108
f 138//109 208//109 227//109 222//109
f 140//110 209//110 226//110 224//110
f 141//111 138//111 222//111 225//111
f 209//112 141//112 225//112 226//112
f 139//113 140//113 224//113 223//113
f 208//114 139//114 223//114 227//114
usemtl FF9800
f 147//115 51//115 23//115 150//115
f 51//116 52//116 24//116 23//116
f 146//117 53//117 25//117 151//117
f 53//118 50//118 22//118 25//118
f 152//119 27//119 31//119 154//119
f 27//120 28//120 32//120 31//120
f 153//121 29//121 33//121 155//121
f 29//122 26//122 30//122 33//122
f 156//123 35//123 39//123 158//123
f 35//124 36//124 40//124 39//124
f 157//125 37//125 41//125 159//125
f 37//126 34//126 38//126 41//126
f 160//127 43//127 47//127 162//127
f 43//128 44//128 48//128 47//128
f 161//129 45//129 49//129 163//129
f 45//130 42//130 46//130 49//130
f 164//131 19//131 55//131 166//131
f 19//132 20//132 56//132 55//132
f 165//133 21//133 57//133 167//133
f 21//134 18//134 54//134 57//134
f 170//135 63//135 67//135 172//135
f 63//136 64//136 68//136 67//136
f 171//137 65//137 69//137 173//137
f 65//138 62//138 66//138 69//138
f 174//139 71//139 75//139 176//139
f 71//140 72//140 76//140 75//140
f 175//141 73//141 77//141 177//141
f 73//142 70//142 74//142 77//142
f 178//143 79//143 83//143 180//143
f 79//144 80//144 84//144 83//144
f 179//145 81//145 85//145 181//145
f 81//146 78//146 82//146 85//146
f 182//147 87//147 91//147 184//147
f 87//148 88//148 92//148 91//148
f 183//149 89//149 93//149 185//149
f 89//150 86//150 90//150 93//150
f 186//151 95//151 99//151 188//151
f 95//152 96//152 100//152 99//152
f 187//153 97//153 101//153 189//153
f 97//154 94//154 98//154 101//154
f 190//155 103//155 107//155 192//155
f 103//156 104//156 108//156 107//156
f 191//157 105//157 109//157 193//157
f 105//158 102//158 106//158 109//158
f 221//159 216//159 110//159 194//159
f 218//160 217//160 111//160 112//160
f 220//161 218//161 112//161 195//161
f 216//162 219//162 113//162 110//162
f 196//163 115//163 119//163 198//163
f 115//164 116//164 120//164 119//164
f 197//165 117//165 121//165 199//165
f 117//166 114//166 118//166 121//166
f 200//167 123//167 127//167 202//167
f 123//168 124//168 128//168 127//168
f 201//169 125//169 129//169 203//169
f 125//170 122//170 126//170 129//170
f 204//171 131//171 135//171 206//171
f 131//172 132//172 136//172 135//172
f 205//173 133//173 137//173 207//173
f 133//174 130//174 134//174 137//174
f 227//175 223//175 143//175 148//175
f 223//176 224//176 144//176 143//176
f 226//177 225//177 145//177 149//177
f 225//178 222//178 142//178 145//178
f 224//179 226//179 149//179 144//179
f 222//180 227//180 148//180 142//180
f 132//181 205//181 207//181 136//181
f 130//182 204//182 206//182 134//182
f 124//183 201//183 203//183 128//183
f 122//184 200//184 202//184 126//184
f 116//185 197//185 199//185 120//185
f 114//186 196//186 198//186 118//186
f 219//187 220//187 195//187 113//187
f 217//188 221//188 194//188 111//188
f 104//189 191//189 193//189 108//189
f 102//190 190//190 192//190 106//190
f 96//191 187//191 189//191 100//191
f 94//192 186//192 188//192 98//192
f 88//193 183//193 185//193 92//193
f 86//194 182//194 184//194 90//194
f 80//195 179//195 181//195 84//195
f 78//196 178//196 180//196 82//196
f 72//197 175//197 177//197 76//197
f 70//198 174//198 176//198 74//198
f 64//199 171//199 173//199 68//199
f 62//200 170//200 172//200 66//200
f 20//201 165//201 167//201 56//201
f 18//202 164//202 166//202 54//202
f 44//203 161//203 163//203 48//203
f 42//204 160//204 162//204 46//204
f 36//205 157//205 159//205 40//205
f 34//206 156//206 158//206 38//206
f 28//207 153//207 155//207 32//207
f 26//208 152//208 154//208 30//208
f 52//209 146//209 151//209 24//209
f 50//210 147//210 150//210 22//210
f 139//211 208//211 215//211 211//211
f 141//212 209//212 214//212 213//212
f 138//213 141//213 213//213 210//213
f 209//214 140//214 212//214 214//214
f 140//215 139//215 211//215 212//215
f 208//216 138//216 210//216 215//216
f 58//217 168//217 233//217 228//217
f 60//218 169//218 232//218 230//218
f 61//219 58//219 228//219 231//219
f 169//220 61//220 231//220 232//220
f 59//221 60//221 230//221 229//221
f 168//222 59//222 229//222 233//222
